<?xml version="1.0" encoding="UTF-8" standalone="no"?>
<svg
   width="1024px"
   height="1024px"
   viewBox="0 0 24 24"
   version="1.1"
   id="svg18"
   sodipodi:docname="icon_with_text.svg"
   inkscape:version="1.1.1 (3bf5ae0d25, 2021-09-20, custom)"
   xmlns:inkscape="http://www.inkscape.org/namespaces/inkscape"
   xmlns:sodipodi="http://sodipodi.sourceforge.net/DTD/sodipodi-0.dtd"
   xmlns="http://www.w3.org/2000/svg"
   xmlns:svg="http://www.w3.org/2000/svg">
  <defs
     id="defs22" />
  <sodipodi:namedview
     id="namedview20"
     pagecolor="#ffffff"
     bordercolor="#111111"
     borderopacity="1"
     inkscape:pageshadow="0"
     inkscape:pageopacity="0"
     inkscape:pagecheckerboard="1"
     showgrid="true"
     inkscape:zoom="0.36669922"
     inkscape:cx="50.450066"
     inkscape:cy="334.06125"
     inkscape:window-width="1920"
     inkscape:window-height="1002"
     inkscape:window-x="0"
     inkscape:window-y="27"
     inkscape:window-maximized="1"
     inkscape:current-layer="svg18">
    <inkscape:grid
       type="xygrid"
       id="grid8495" />
  </sodipodi:namedview>
  <rect
     style="opacity:0.98;fill:#373e48;fill-rule:evenodd;stroke:none;stroke-width:0.117188;stroke-linecap:round;paint-order:stroke fill markers"
     id="rect8519"
     width="16.875"
     height="3.75"
     x="3.5625"
     y="19.21875"
     ry="0.9375" />
  <g
     transform="matrix(0.8,0,0,0.8,2.4,-822.0543)"
     id="g16">
    <path
       d="M 2,4 V 17.531 20 c 0,1.105 0.8954,2 2,2 h 4 8 l 6,-6 V 4 Z"
       transform="translate(0,1028.4)"
       fill="#f1c40f"
       id="path2" />
    <path
       d="m 22,1044.4 -6,6 v -4 c 0,-1.1 0.895,-2 2,-2 z"
       fill="#f39c12"
       id="path4" />
    <path
       d="M 4,2 C 2.8954,2 2,2.8954 2,4 V 5 6 H 22 V 5 4 C 22,2.8954 21.105,2 20,2 H 16 8 Z"
       transform="translate(0,1028.4)"
       fill="#f1c40f"
       id="path6" />
    <g
       fill="#f39c12"
       id="g14">
      <rect
         height="2"
         width="14"
         y="1034.4"
         x="5"
         id="rect8" />
      <rect
         height="2"
         width="14"
         y="1038.4"
         x="5"
         id="rect10" />
      <rect
         height="2"
         width="9"
         y="1042.4"
         x="5"
         id="rect12" />
    </g>
  </g>
  <g
     aria-label="Post Maker"
     id="text2183"
     style="font-weight:600;font-size:3.375px;line-height:1.25;font-family:Rajdhani;-inkscape-font-specification:'Rajdhani Semi-Bold';fill:#ffffff;stroke-width:0.0234375"
     transform="translate(0.09375)">
    <path
       d="m 4.7429876,22.226263 h -0.212625 q -0.057375,0 -0.057375,-0.05738 v -2.055375 q 0,-0.05738 0.057375,-0.05738 h 0.80325 q 0.246375,0 0.38475,0.138375 0.138375,0.135 0.138375,0.38475 v 0.351 q 0,0.246375 -0.138375,0.38475 -0.138375,0.138375 -0.38475,0.138375 h -0.49275 q -0.0405,0 -0.0405,0.03375 v 0.68175 q 0,0.05738 -0.057375,0.05738 z m 0.0945,-1.063125 h 0.448875 q 0.239625,0 0.239625,-0.24975 v -0.320625 q 0,-0.24975 -0.239625,-0.24975 h -0.448875 q -0.037125,0 -0.037125,0.03375 v 0.752625 q 0,0.03375 0.037125,0.03375 z"
       id="path8889" />
    <path
       d="m 7.0076122,22.226263 h -0.297 q -0.24975,0 -0.388125,-0.138375 -0.135,-0.138375 -0.135,-0.38475 v -0.675 q 0,-0.24975 0.135,-0.38475 0.138375,-0.138375 0.388125,-0.138375 h 0.297 q 0.246375,0 0.38475,0.138375 0.14175,0.135 0.14175,0.38475 v 0.675 q 0,0.246375 -0.14175,0.38475 -0.138375,0.138375 -0.38475,0.138375 z m -0.24975,-0.286875 h 0.205875 q 0.243,0 0.243,-0.246375 v -0.65475 q 0,-0.246375 -0.243,-0.246375 h -0.205875 q -0.12825,0 -0.185625,0.06075 -0.057375,0.05738 -0.057375,0.185625 v 0.65475 q 0,0.12825 0.057375,0.189 0.057375,0.05738 0.185625,0.05738 z"
       id="path8891" />
    <path
       d="m 8.5364862,22.226263 h -0.621 q -0.057375,0 -0.057375,-0.05738 v -0.165375 q 0,-0.054 0.057375,-0.054 h 0.567 q 0.219375,0 0.219375,-0.151875 v -0.0405 q 0,-0.135 -0.158625,-0.205875 l -0.367875,-0.1755 q -0.172125,-0.081 -0.24975,-0.178875 -0.077625,-0.09788 -0.077625,-0.2565 0,-0.435375 0.482625,-0.435375 h 0.56025 q 0.054,0 0.054,0.05737 v 0.165375 q 0,0.05738 -0.054,0.05738 h -0.49275 q -0.10125,0 -0.15525,0.03712 -0.054,0.03375 -0.054,0.09113 v 0.03712 q 0,0.108 0.172125,0.189 l 0.37125,0.189 q 0.1755,0.07762 0.239625,0.185625 0.0675,0.104625 0.0675,0.273375 0,0.43875 -0.502875,0.43875 z"
       id="path8893" />
    <path
       d="m 9.4409844,20.791888 h -0.162 q -0.03375,0 -0.04725,-0.01012 -0.010125,-0.0135 -0.010125,-0.04387 v -0.1755 q 0,-0.05737 0.057375,-0.05737 h 0.162 q 0.03375,0 0.03375,-0.03375 v -0.30375 q 0,-0.05738 0.06075,-0.05738 h 0.212625 q 0.057375,0 0.057375,0.05738 v 0.30375 q 0,0.03375 0.037125,0.03375 h 0.3138746 q 0.06075,0 0.06075,0.05737 v 0.1755 q 0,0.054 -0.06075,0.054 H 9.8426094 q -0.037125,0 -0.037125,0.03375 v 0.867375 q 0,0.246375 0.2531246,0.246375 h 0.131625 q 0.06075,0 0.06075,0.05738 v 0.1755 q 0,0.054 -0.06075,0.054 h -0.18225 q -0.2497496,0 -0.3914996,-0.135 -0.14175,-0.135 -0.14175,-0.381375 v -0.88425 q 0,-0.03375 -0.03375,-0.03375 z"
       id="path8895" />
    <path
       d="m 12.896987,20.056138 h 0.378 q 0.05738,0 0.05738,0.05738 v 2.055375 q 0,0.05738 -0.05738,0.05738 h -0.20925 q -0.05738,0 -0.05738,-0.05738 v -1.704375 h -0.0135 l -0.43875,1.23525 q -0.02025,0.054 -0.07425,0.054 h -0.216 q -0.05063,0 -0.07088,-0.054 l -0.448875,-1.238625 h -0.0135 v 1.70775 q 0,0.03375 -0.0135,0.04725 -0.01013,0.01012 -0.04388,0.01012 h -0.205875 q -0.05738,0 -0.05738,-0.05738 v -2.055375 q 0,-0.05738 0.05738,-0.05738 h 0.378 q 0.03712,0 0.054,0.03712 l 0.462375,1.30275 h 0.01687 l 0.46575,-1.30275 q 0.0068,-0.03712 0.05063,-0.03712 z"
       id="path8897" />
    <path
       d="m 14.412363,22.226263 h -0.131625 q -0.24975,0 -0.388125,-0.138375 -0.135,-0.138375 -0.135,-0.38475 v -0.675 q 0,-0.24975 0.135,-0.38475 0.138375,-0.138375 0.388125,-0.138375 h 0.756 q 0.06075,0 0.06075,0.05737 v 1.6065 q 0,0.05738 -0.06075,0.05738 h -0.212625 q -0.05738,0 -0.05738,-0.05738 v -0.1215 h -0.0135 q -0.081,0.178875 -0.340875,0.178875 z m 0.354375,-0.57375 v -0.826875 q 0,-0.03375 -0.03712,-0.03375 h -0.401625 q -0.243,0 -0.243,0.24975 v 0.648 q 0,0.24975 0.243,0.24975 h 0.162 q 0.27675,0 0.27675,-0.286875 z"
       id="path8899" />
    <path
       d="m 16.49811,20.505013 h 0.243 q 0.03037,0 0.0405,0.02025 0.0135,0.01688 -0.0068,0.04725 l -0.475875,0.756 v 0.0135 l 0.513,0.81675 q 0.01687,0.027 0.0034,0.04725 -0.01012,0.02025 -0.04725,0.02025 H 16.54871 q -0.07763,0 -0.11475,-0.05738 l -0.47585,-0.77962 q -0.02362,-0.04387 0,-0.09112 l 0.442125,-0.739125 q 0.03038,-0.054 0.09788,-0.054 z m -0.70875,1.72125 h -0.212625 q -0.05737,0 -0.05737,-0.05738 v -2.257875 q 0,-0.05738 0.05737,-0.05738 h 0.212625 q 0.05738,0 0.05738,0.05738 v 2.257875 q 0,0.05738 -0.05738,0.05738 z"
       id="path8901" />
    <path
       d="m 18.276732,22.226263 h -0.729 q -0.24975,0 -0.388125,-0.138375 -0.135,-0.138375 -0.135,-0.38475 v -0.675 q 0,-0.24975 0.135,-0.38475 0.138375,-0.138375 0.388125,-0.138375 h 0.27675 q 0.24975,0 0.388125,0.138375 0.138375,0.135 0.138375,0.38475 v 0.428625 q 0,0.06075 -0.06075,0.06075 h -0.9045 q -0.03712,0 -0.03712,0.03375 v 0.145125 q 0,0.246375 0.246375,0.246375 h 0.68175 q 0.06075,0 0.06075,0.06075 v 0.16875 q 0,0.054 -0.06075,0.054 z m -0.891,-0.93825 h 0.604125 q 0.03375,0 0.03375,-0.03375 v -0.216 q 0,-0.12825 -0.05737,-0.185625 -0.05738,-0.06075 -0.185625,-0.06075 h -0.185625 q -0.12825,0 -0.185625,0.06075 -0.05738,0.05738 -0.05738,0.185625 v 0.216 q 0,0.03375 0.03375,0.03375 z"
       id="path8903" />
    <path
       d="m 18.992233,22.226263 h -0.212625 q -0.05738,0 -0.05738,-0.05738 v -1.6065 q 0,-0.05737 0.05738,-0.05737 h 0.212625 q 0.05738,0 0.05738,0.05737 v 0.12825 h 0.0135 q 0.03375,-0.08438 0.12825,-0.135 0.09787,-0.05062 0.216,-0.05062 h 0.124875 q 0.05737,0 0.05737,0.05737 v 0.1755 q 0,0.06412 -0.05737,0.054 h -0.2025 q -0.280125,0 -0.280125,0.307125 v 1.069875 q 0,0.05738 -0.05738,0.05738 z"
       id="path8905" />
  </g>
</svg>
