<?xml version="1.0" ?><svg width="16px" height="16px" viewBox="0 0 35 35" data-name="Layer 2" id="e8de1841-eb36-4a1b-bc66-894a956e3d92" xmlns="http://www.w3.org/2000/svg"><path fill="black" d="M17.505,34.727a17.227,17.227,0,1,1,15.859-23.9,1.25,1.25,0,0,1-2.3.969,14.727,14.727,0,1,0-7.873,19.282,1.25,1.25,0,0,1,.969,2.305A17.127,17.127,0,0,1,17.505,34.727Z"/><path fill="black" d="M33.426,13.217h-.01l-9.788-.075a1.25,1.25,0,0,1,.009-2.5h.009l8.539.065.065-8.538A1.25,1.25,0,0,1,33.5.929h.009A1.249,1.249,0,0,1,34.75,2.188l-.074,9.788A1.251,1.251,0,0,1,33.426,13.217Z"/></svg>
